<svg xmlns="http://www.w3.org/2000/svg" viewBox="0 0 64 64" width="64" height="64">
  <defs>
    <linearGradient id="brandGradient" x1="0%" y1="0%" x2="100%" y2="100%">
      <stop offset="0%" stop-color="#2563eb"/>
      <stop offset="50%" stop-color="#3b82f6"/>
      <stop offset="100%" stop-color="#f97316"/>
    </linearGradient>
    <linearGradient id="accentGradient" x1="0%" y1="100%" x2="100%" y2="0%">
      <stop offset="0%" stop-color="#f97316"/>
      <stop offset="100%" stop-color="#fb923c"/>
    </linearGradient>
  </defs>
  <circle cx="32" cy="32" r="30" fill="url(#brandGradient)" opacity="0.15"/>
  <g transform="translate(8, 4)">
    <path d="M24 48 L24 24 L12 6 L0 24 L0 48 Z" fill="none" stroke="url(#brandGradient)" stroke-width="2" stroke-linecap="round" stroke-linejoin="round"/>
    <path d="M24 24 L12 6 L0 24" fill="url(#accentGradient)" opacity="0.95"/>
    <g transform="translate(12, 6)">
      <path d="M0 0 C-12 -12, -12 -24, 0 -36" fill="none" stroke="url(#brandGradient)" stroke-width="2" stroke-linecap="round" opacity="0.7"/>
      <path d="M0 0 C-8 -8, -8 -16, 0 -24" fill="none" stroke="url(#brandGradient)" stroke-width="1.5" stroke-linecap="round" opacity="0.5"/>
      <path d="M0 0 C-4 -4, -4 -8, 0 -12" fill="none" stroke="url(#accentGradient)" stroke-width="1" stroke-linecap="round" opacity="0.4"/>
    </g>
    <circle cx="19" cy="34" r="3.5" fill="url(#accentGradient)"/>
  </g>
</svg>