<svg xmlns="http://www.w3.org/2000/svg" width="1000" height="1500" viewBox="0 0 1000 1500"><defs><linearGradient id="g1" x1="0" y1="0" x2="1" y2="1"><stop stop-color="#0f172a"/><stop offset=".58" stop-color="#172554"/><stop offset="1" stop-color="#075985"/></linearGradient><pattern id="grid1" width="48" height="48" patternUnits="userSpaceOnUse"><path d="M48 0H0V48" fill="none" stroke="#22d3ee" stroke-opacity=".1" stroke-width="2"/></pattern></defs><rect width="1000" height="1500" fill="url(#g1)"/><rect width="1000" height="1500" fill="url(#grid1)"/><circle cx="90" cy="104" r="34" fill="#f97316"/><path d="M77 105l13-16 13 16v21H77zM72 104l18-20 18 20" fill="none" stroke="#ffffff" stroke-width="3"/><text x="148" y="114" font-family="Arial, system-ui, sans-serif" font-size="38" font-weight="700" fill="#ffffff">FlowHome</text><rect x="700" y="76" width="214" height="54" rx="27" fill="#ffffff" fill-opacity=".14" stroke="#22d3ee" stroke-opacity=".6"/><text x="807" y="111" text-anchor="middle" font-family="Arial, system-ui, sans-serif" font-size="22" font-weight="700" letter-spacing="2" fill="#22d3ee">REVIEW</text><g><circle cx="770" cy="410" r="210" fill="none" stroke="#22d3ee" stroke-width="5" opacity=".3"/><circle cx="770" cy="410" r="120" fill="none" stroke="#0891b2" stroke-width="18" opacity=".7"/><path d="M580 410h380M770 220v380" stroke="#ffffff" opacity=".12" stroke-width="3"/><circle cx="770" cy="410" r="28" fill="#f97316"/></g><rect x="72" y="710" width="856" height="530" rx="42" fill="#ffffff" fill-opacity=".96"/><rect x="72" y="710" width="12" height="530" rx="6" fill="#f97316"/><text x="126" y="820" font-family="Arial, system-ui, sans-serif" font-size="66" font-weight="700" fill="#0f172a">Roborock Q5+</text><text x="126" y="1015" font-family="Arial, system-ui, sans-serif" font-size="31" font-weight="400" fill="#334155">PreciSense LiDAR, app control, and</text><text x="126" y="1063" font-family="Arial, system-ui, sans-serif" font-size="31" font-weight="400" fill="#334155">Auto Dust Emptying in a</text><text x="126" y="1111" font-family="Arial, system-ui, sans-serif" font-size="31" font-weight="400" fill="#334155">vacuum-only system.</text><rect x="126" y="1145" width="360" height="64" rx="32" fill="#ea580c"/><text x="306" y="1187" text-anchor="middle" font-family="Arial, system-ui, sans-serif" font-size="25" font-weight="700" fill="#ffffff">Read the review</text><text x="72" y="1385" font-family="Arial, system-ui, sans-serif" font-size="21" font-weight="700" letter-spacing="2" fill="#22d3ee">FLOWHOME.DEV  /  EDITORIAL REVIEW</text></svg>