<svg xmlns="http://www.w3.org/2000/svg" width="640" height="480" viewBox="0 0 640 480" role="img" aria-label="Smart Lighting">
  <defs>
    <linearGradient id="bg" x1="0" x2="1" y1="0" y2="1">
      <stop offset="0%" stop-color="#fef3c7"/>
      <stop offset="100%" stop-color="#ffedd5"/>
    </linearGradient>
    <filter id="shadow" x="-20%" y="-20%" width="140%" height="140%">
      <feDropShadow dx="0" dy="18" stdDeviation="18" flood-color="#0f172a" flood-opacity="0.18"/>
    </filter>
  </defs>
  <rect width="640" height="480" rx="36" fill="url(#bg)"/>
  <circle cx="504" cy="96" r="96" fill="#ffffff" opacity="0.18"/>
  <circle cx="96" cy="398" r="120" fill="#ffffff" opacity="0.14"/>
  <g filter="url(#shadow)"><path d="M320 86c-66 0-116 47-116 108 0 39 20 72 50 92 14 9 22 22 22 38h88c0-16 8-29 22-38 30-20 50-53 50-92 0-61-50-108-116-108z" fill="#ffffff"/><path d="M276 336h88M286 366h68" stroke="#f97316" stroke-width="16" stroke-linecap="round"/><circle cx="320" cy="194" r="42" fill="#fde68a"/></g>
  <text x="320" y="424" text-anchor="middle" font-family="Inter, Arial, sans-serif" font-size="28" font-weight="800" fill="#0f172a" opacity="0.82">Smart Lighting</text>
  <text x="320" y="456" text-anchor="middle" font-family="Inter, Arial, sans-serif" font-size="18" font-weight="700" fill="#334155" opacity="0.72">FlowHome buying guide</text>
</svg>
